<svg xmlns="http://www.w3.org/2000/svg" viewBox="0 0 862.5 367.3"><defs><style>.cls-1{fill:#fff}</style></defs><g id="Capa_2" data-name="Capa 2"><g id="Capa_1-2" data-name="Capa 1"><path d="M0 125.3V1.7h51.6q13.8 0 23.2 4T89 16.5A28.7 28.7 0 0 1 93.7 33a26.2 26.2 0 0 1-3 12.6 25.8 25.8 0 0 1-8.2 9.1 32.5 32.5 0 0 1-12 5.1V61a30.2 30.2 0 0 1 13.9 4 28 28 0 0 1 10.3 10.3 30 30 0 0 1 3.8 15.4 32 32 0 0 1-5 17.8 34.2 34.2 0 0 1-14.7 12.3q-9.6 4.5-23.3 4.5Zm29.9-72.8h16.5a21.9 21.9 0 0 0 8.7-1.6 13.6 13.6 0 0 0 6-4.7 12.7 12.7 0 0 0 2.1-7.4 11.9 11.9 0 0 0-4.4-9.8q-4.4-3.6-11.9-3.6H30Zm0 48.7h18.5q9.7 0 14.3-3.6a12.4 12.4 0 0 0 4.6-10.3 15 15 0 0 0-2.2-8.3 14.7 14.7 0 0 0-6.4-5.3 23.3 23.3 0 0 0-9.8-2h-19ZM229.6 63.5q0 20.4-7.9 34.6a53.6 53.6 0 0 1-21.2 21.6 61.1 61.1 0 0 1-30 7.3 60.6 60.6 0 0 1-30-7.4A53.8 53.8 0 0 1 119.4 98q-7.8-14.2-7.8-34.5t7.8-34.6a53.3 53.3 0 0 1 21.1-21.5 61 61 0 0 1 30-7.4 61.1 61.1 0 0 1 30 7.4 53.6 53.6 0 0 1 21.3 21.5q7.8 14.2 7.8 34.6Zm-30.6 0q0-12-3.4-20.4a27 27 0 0 0-9.7-12.6A26.8 26.8 0 0 0 145.5 43q-3.4 8.3-3.4 20.4t3.4 20.4a26.8 26.8 0 0 0 50.1 0q3.4-8.3 3.4-20.4ZM363.7 63.5q0 20.4-7.9 34.6a53.5 53.5 0 0 1-21.2 21.6 64.5 64.5 0 0 1-60-.1A53.8 53.8 0 0 1 253.5 98q-7.9-14.2-7.9-34.5t7.9-34.6a53.3 53.3 0 0 1 21.1-21.5 64.7 64.7 0 0 1 60 0 53.5 53.5 0 0 1 21.2 21.5q7.9 14.2 7.9 34.6Zm-30.6 0q0-12-3.4-20.4a26.8 26.8 0 0 0-50.2 0q-3.4 8.3-3.4 20.4t3.4 20.4a26.8 26.8 0 0 0 50.2 0q3.4-8.3 3.4-20.4ZM381 125.3V1.7h30V54h1.6l40.8-52.3h35.2l-43.8 55.2 44.6 68.4h-35.7l-30.8-48.6-12 15.1v33.5ZM292.7 329.3V205.7h51q14 0 24 5a36.3 36.3 0 0 1 15.7 14.2q5.4 9.3 5.4 22 0 12.8-5.6 21.8a35.7 35.7 0 0 1-16 13.6Q357 287 342.9 287h-32.3v-23.5h26.8a31.3 31.3 0 0 0 11.3-1.8 14 14 0 0 0 7-5.4 17 17 0 0 0 2.3-9.4 17.7 17.7 0 0 0-2.4-9.5 14.5 14.5 0 0 0-7-5.7 29.5 29.5 0 0 0-11.2-2h-14.8v99.6Zm69.6-56.5 30.8 56.5h-32.6l-30.2-56.5ZM405.2 329.3V205.7h86.2V230h-56.3v25.4H487v24.3h-52V305h56.4v24.3ZM536.9 329.3h-32.2l41.8-123.6h39.7L628 329.3h-32.2l-29-92.5h-1Zm-4.3-48.6h67.1v22.7h-67.1ZM687 329.3h-45.7V205.7h45.6q19 0 32.6 7.4a51 51 0 0 1 21.1 21.2q7.4 13.9 7.4 33.1t-7.4 33.3a50.7 50.7 0 0 1-21.1 21.2q-13.7 7.4-32.5 7.4Zm-15.8-25.5h14.7q10.3 0 17.6-3.5a23.2 23.2 0 0 0 10.9-11.5q3.7-8 3.7-21.3t-3.7-21.3a23.3 23.3 0 0 0-11-11.5q-7.3-3.5-18-3.5h-14.2ZM832.2 242.8a14.2 14.2 0 0 0-5.3-10.4q-4.7-3.7-13.5-3.7a26.8 26.8 0 0 0-9.7 1.5 12.7 12.7 0 0 0-5.8 4.1 10.2 10.2 0 0 0-2 6 8.8 8.8 0 0 0 1.2 5 11.7 11.7 0 0 0 3.6 3.7 26.2 26.2 0 0 0 5.8 2.8 60.6 60.6 0 0 0 7.6 2.1l10.6 2.4a75.8 75.8 0 0 1 16.2 5.3 44.5 44.5 0 0 1 11.8 8A30.9 30.9 0 0 1 860 280a35.5 35.5 0 0 1 2.5 13.4q0 11.7-5.9 20t-16.8 13q-11 4.4-26.4 4.4t-27-4.6a38.2 38.2 0 0 1-18-14.2q-6.3-9.5-6.5-24h28.6a18.9 18.9 0 0 0 3.2 10 17.5 17.5 0 0 0 7.8 6 30.2 30.2 0 0 0 11.5 2.1 29 29 0 0 0 10.3-1.6 15 15 0 0 0 6.6-4.6 10.8 10.8 0 0 0 2.3-6.6 9.3 9.3 0 0 0-2.2-6 17 17 0 0 0-6.5-4.3 71.5 71.5 0 0 0-11.1-3.5l-13-3q-16-3.6-25.2-11.9t-9.2-22.3a33.2 33.2 0 0 1 6.2-20 41 41 0 0 1 17.2-13.5 61.7 61.7 0 0 1 25-4.9q14.4 0 25 4.9a38.7 38.7 0 0 1 16.5 13.6 36.4 36.4 0 0 1 6 20.3ZM249.8 183.5H263a13.2 13.2 0 0 0-1.4-5.9Zm0 170.7-11.7 5.8a13.1 13.1 0 0 0 24.9-5.8ZM13.5 183.5l-11.7-5.9a13.2 13.2 0 0 0-1.4 5.9Zm0 170.7H.4a13.1 13.1 0 0 0 24.9 5.8Zm118.2 0-11.8 5.8a13.1 13.1 0 0 0 23.5 0Zm0-157.6-12.5 4.2a13.1 13.1 0 0 0 25 0Zm105-13.1v170.7H263V183.5Zm-236.4 0v170.7h26.3V183.5Zm249.5 170.7 11.8-6-.1-.2-.3-.5-.8-1.4a46.5 46.5 0 0 0-3-4.1 61.6 61.6 0 0 0-12.1-11.5 90.4 90.4 0 0 0-54.5-15.7V341c20.3 0 32.3 5.7 39 10.6a35.4 35.4 0 0 1 7 6.6 19.5 19.5 0 0 1 1.3 1.8l.2.2s-.2-.2 11.5-6Zm-59-39.4a90.4 90.4 0 0 0-54.5 15.6A61.6 61.6 0 0 0 124 342a44.2 44.2 0 0 0-3 4.2l-.8 1.4-.2.5-.1.2 11.7 5.9 11.7 5.9a.4.4 0 0 1 0 .1l.2-.3a19.5 19.5 0 0 1 1.3-1.7 35.5 35.5 0 0 1 7-6.6 64.5 64.5 0 0 1 39-10.6Zm-59.1 39.4 11.7-6v-.2l-.4-.5a31 31 0 0 0-.8-1.4 44.2 44.2 0 0 0-3-4.1 61.6 61.6 0 0 0-12-11.5 90.4 90.4 0 0 0-54.6-15.7V341c20.3 0 32.4 5.7 39 10.6a35.5 35.5 0 0 1 7 6.6 19.5 19.5 0 0 1 1.3 1.8l.2.2s-.2-.2 11.6-6Zm-59.1-39.4A90.4 90.4 0 0 0 18 330.4 61.6 61.6 0 0 0 6 342a46.5 46.5 0 0 0-3 4.2l-.8 1.4-.3.5v.2l11.6 6c11.6 6 11.8 5.8 11.8 5.9l.2-.2a19.5 19.5 0 0 1 1.2-1.8 35.4 35.4 0 0 1 7-6.6A64.2 64.2 0 0 1 72.6 341Zm177.2-131.3 11.8-5.9-.1-.3-.3-.5-.8-1.4a46.5 46.5 0 0 0-3-4.1 61.6 61.6 0 0 0-12.1-11.5 90.4 90.4 0 0 0-54.5-15.6v26.2c20.3 0 32.3 5.7 39 10.6a35.4 35.4 0 0 1 7 6.6 19.5 19.5 0 0 1 1.3 1.8l.2.2v-.1s-.2-.1 11.5-6Zm-59-39.4a74 74 0 0 0-56.5 24 78.7 78.7 0 0 0-11.5 16.3c-1.2 2.2-2 4.1-2.6 5.5l-.7 1.7-.2.6v.2l12.4 4.2 12.5 4.2a.8.8 0 0 1 0-.1l.3-.8c.3-.8.8-2 1.6-3.4a51.8 51.8 0 0 1 7.6-10.8 48 48 0 0 1 37-15.4Zm-59.1 52.5 12.4-4.1a.6.6 0 0 1 0-.1v-.2l-.2-.6-.7-1.7-2.6-5.5A78.7 78.7 0 0 0 129 168c-11-12-29.2-24-56.5-24v26.3a48 48 0 0 1 37.1 15.4 51.8 51.8 0 0 1 7.6 10.8 41.3 41.3 0 0 1 2 4.2Zm-59.1-52.5A90.4 90.4 0 0 0 18 159.7 61.6 61.6 0 0 0 6 171.2a46.5 46.5 0 0 0-3 4.2l-.8 1.4-.3.5v.2l11.6 6c11.6 6 11.8 5.8 11.8 5.8v.1l.2-.2a19.5 19.5 0 0 1 1.2-1.8 35.4 35.4 0 0 1 7-6.5 64.6 64.6 0 0 1 39-10.6Z" class="cls-1"/></g></g></svg>