<svg xmlns="http://www.w3.org/2000/svg" viewBox="0 0 4150.08 755.56"><defs><style>.cls-1{fill:#ffcb45;}.cls-2{fill:#c7c7c7;}</style></defs><g id="Capa_2" data-name="Capa 2"><g id="Capa_1-2" data-name="Capa 1"><path class="cls-1" d="M2912.56,647.38,2665.35,755.56l27.21-266.91-180-200,264-56.78L2912.56,0"/><path class="cls-2" d="M2912.56,0l136,231.82,264,56.78-180,200,27.21,266.91L2912.56,647.38"/><path class="cls-1" d="M1237.52,0l136,231.82,264,56.78-180,200,27.21,266.91L1237.52,647.38,990.31,755.56l27.21-266.91-180-200,264-56.78Z"/><g id="SVGRepo_iconCarrier" data-name="SVGRepo iconCarrier"><path class="cls-2" d="M3750.08,0l136,231.82,264,56.78-180,200,27.21,266.91L3750.08,647.38,3502.86,755.56l27.22-266.91-180-200,264-56.78Z"/></g><path class="cls-1" d="M400,0,536,231.82,800,288.6l-180,200,27.21,266.91L400,647.38,152.79,755.56,180,488.65,0,288.6l264-56.78Z"/><path class="cls-1" d="M2075,0l136,231.82,264,56.78-180,200,27.21,266.91L2075,647.38,1827.82,755.56,1855,488.65l-180-200,264-56.78Z"/></g></g></svg>